<mxfile host="Electron" agent="Mozilla/5.0 (Windows NT 10.0; Win64; x64) AppleWebKit/537.36 (KHTML, like Gecko) draw.io/28.1.2 Chrome/138.0.7204.243 Electron/37.4.0 Safari/537.36" version="28.1.2">
  <diagram name="ページ1" id="rQqJZIX6tr6lNk25Nhh9">
    <mxGraphModel dx="1310" dy="860" grid="1" gridSize="10" guides="1" tooltips="1" connect="1" arrows="1" fold="1" page="1" pageScale="1" pageWidth="1600" pageHeight="1200" math="0" shadow="0">
      <root>
        <mxCell id="0" />
        <mxCell id="1" parent="0" />
        <mxCell id="MZ_FIwBdbLO-4FadulBU-2" value="RoboDog" style="html=1;whiteSpace=wrap;fillColor=none;verticalAlign=top;" vertex="1" parent="1">
          <mxGeometry x="625" y="465" width="350" height="270" as="geometry" />
        </mxCell>
        <mxCell id="MZ_FIwBdbLO-4FadulBU-1" value="ユーザ" style="shape=umlActor;verticalLabelPosition=bottom;verticalAlign=top;html=1;" vertex="1" parent="1">
          <mxGeometry x="645" y="570" width="30" height="60" as="geometry" />
        </mxCell>
        <mxCell id="MZ_FIwBdbLO-4FadulBU-3" value="システム内部" style="html=1;whiteSpace=wrap;verticalAlign=top;fillColor=none;" vertex="1" parent="1">
          <mxGeometry x="755" y="495" width="200" height="220" as="geometry" />
        </mxCell>
        <mxCell id="MZ_FIwBdbLO-4FadulBU-4" value="名前を変更する" style="ellipse;whiteSpace=wrap;html=1;" vertex="1" parent="1">
          <mxGeometry x="785" y="535" width="140" height="40" as="geometry" />
        </mxCell>
        <mxCell id="MZ_FIwBdbLO-4FadulBU-5" value="時刻に応じた&lt;br&gt;挨拶をする" style="ellipse;whiteSpace=wrap;html=1;" vertex="1" parent="1">
          <mxGeometry x="785" y="595" width="140" height="40" as="geometry" />
        </mxCell>
        <mxCell id="MZ_FIwBdbLO-4FadulBU-6" value="足し算をする" style="ellipse;whiteSpace=wrap;html=1;" vertex="1" parent="1">
          <mxGeometry x="785" y="655" width="140" height="40" as="geometry" />
        </mxCell>
        <mxCell id="MZ_FIwBdbLO-4FadulBU-7" value="" style="endArrow=none;html=1;rounded=0;entryX=0;entryY=0.5;entryDx=0;entryDy=0;exitX=0.5;exitY=0.5;exitDx=0;exitDy=0;exitPerimeter=0;" edge="1" parent="1" source="MZ_FIwBdbLO-4FadulBU-1" target="MZ_FIwBdbLO-4FadulBU-4">
          <mxGeometry width="50" height="50" relative="1" as="geometry">
            <mxPoint x="765" y="655" as="sourcePoint" />
            <mxPoint x="815" y="605" as="targetPoint" />
          </mxGeometry>
        </mxCell>
        <mxCell id="MZ_FIwBdbLO-4FadulBU-9" value="" style="endArrow=none;html=1;rounded=0;entryX=0;entryY=0.5;entryDx=0;entryDy=0;exitX=0.5;exitY=0.5;exitDx=0;exitDy=0;exitPerimeter=0;" edge="1" parent="1" source="MZ_FIwBdbLO-4FadulBU-1" target="MZ_FIwBdbLO-4FadulBU-6">
          <mxGeometry width="50" height="50" relative="1" as="geometry">
            <mxPoint x="715" y="660" as="sourcePoint" />
            <mxPoint x="840" y="615" as="targetPoint" />
          </mxGeometry>
        </mxCell>
        <mxCell id="MZ_FIwBdbLO-4FadulBU-10" value="" style="endArrow=none;html=1;rounded=0;entryX=0;entryY=0.5;entryDx=0;entryDy=0;exitX=0.5;exitY=0.5;exitDx=0;exitDy=0;exitPerimeter=0;" edge="1" parent="1" source="MZ_FIwBdbLO-4FadulBU-1" target="MZ_FIwBdbLO-4FadulBU-5">
          <mxGeometry width="50" height="50" relative="1" as="geometry">
            <mxPoint x="715" y="660" as="sourcePoint" />
            <mxPoint x="840" y="615" as="targetPoint" />
          </mxGeometry>
        </mxCell>
      </root>
    </mxGraphModel>
  </diagram>
</mxfile>
